/* XPM */
static char *_56e45daa2a84fbdcd28e69a650839c8Sn96HJvmaZEfqlaz[] = {
/* columns rows colors chars-per-pixel */
"64 64 28 1 ",
"  c None",
". c #219853",
"X c #219953",
"o c #229D55",
"O c #23A057",
"+ c #23A258",
"@ c #24A65A",
"# c #24A75B",
"$ c #25A95C",
"% c #26AE5F",
"& c #27B261",
"* c #28B462",
"= c #2DCB70",
"- c #2DCC70",
"; c #2ECC70",
": c #2ECC71",
"> c #9CBBBD",
", c #A2BFC1",
"< c #A8C3C5",
"1 c #AEC7C9",
"2 c #B4CCCD",
"3 c #BAD0D1",
"4 c #C1D4D5",
"5 c #D3E1E2",
"6 c #D9E5E6",
"7 c #E0E9EA",
"8 c #E6EEEE",
"9 c white",
/* pixels */
"     99999999999999999                    99999999999999999     ",
"   9999999999999999999                    9999999999999999999   ",
" 9998422>>>>>>>>>>>>>>                    >>>>>>>>>>>>>>2248999 ",
" 994>>>>>>>>>>>>>>>>>>                    >>>>>>>>>>>>>>>>>>499 ",
"996>>>>>>>>>>>>>>>>>>>                    >>>>>>>>>>>>>>>>>>>699",
"991>>>>>>>>>>>>>>>>>>>                    >>>>>>>>>>>>>>>>>>>199",
"99>>>>                                                    >>>>99",
"99>>>>                                                    >>>>99",
"99>>>>                                                    >>>>99",
"99>>>>                                                    >>>>99",
"99>>>>                                                    >>>>99",
"99>>>>                                                    >>>>99",
"99>>>>                                                    >>>>99",
"99>>>>                                                    >>>>99",
"99>>>>                                                    >>>>99",
"99>>>>                                                    >>>>99",
"99>>>>            --::::::::::::::::::::::::-:            >>>>99",
"99>>>>           ::::::::::::::::::::::::::::::           >>>>99",
"99>>>>          ::::::::::::::::::::::::::::::::          >>>>99",
"99>>>>          ::::::::::::::::::::::::::::::::          >>>>99",
"99>>>>          ::::::::::::::::::::::::::::::::          >>>>99",
"99>>>>          :::::*****+..........+*****:::::          >>>>99",
"                :::::******+........O******:::::                ",
"                :::::*******+......+*******:::::                ",
"                :::::********+....+********:::::                ",
"                :::::*********+..+*********:::::                ",
"                :::::$*******&o..o&*******$:::::                ",
"                :::::.$*****&o.++.o&*****$.:::::                ",
"                :::::..$***&o.+**+.o&***$..:::::                ",
"                :::::...$*&o.+****+.o&*$...:::::                ",
"                :::::....#o.+******+.o#....:::::                ",
"                :::::......O********+......:::::                ",
"                :::::......$********$......:::::                ",
"                :::::....O..$******$..O....:::::                ",
"                :::::...+*%..$****$..%*+...:::::                ",
"                :::::..+***%..$**$..%***+..:::::                ",
"                :::::.+*****&..$$.X%*****+.:::::                ",
"                :::::+*******$...X%*******+:::::                ",
"                :::::*********#..#*********:::::                ",
"                :::::********$....$********:::::                ",
"                :::::*******$......$*******:::::                ",
"                :::::******$........$******:::::                ",
"99>>>>          :::::*****$..........$*****:::::          >>>>99",
"99>>>>          ::::::::::::::::::::::::::::::::          >>>>99",
"99>>>>          ::::::::::::::::::::::::::::::::          >>>>99",
"99>>>>          ::::::::::::::::::::::::::::::::          >>>>99",
"99>>>>           ::::::::::::::::::::::::::::::           >>>>99",
"99>>>>           :::::::::::::::::::::::::::::-           >>>>99",
"99>>>>                                                    >>>>99",
"99>>>>                                                    >>>>99",
"99>>>>                                                    >>>>99",
"99>>>>                                                    >>>>99",
"99>>>>                                                    >>>>99",
"99>>>>                                                    >>>>99",
"99>>>>                                                    >>>>99",
"99>>>>                                                    >>>>99",
"99>>>>                                                    >>>>99",
"99,>>>                                                    >>>,99",
"993>>>>>>>>>>>>>>>>>>>                    >>>>>>>>>>>>>>>>>>>399",
"997>>>>>>>>>>>>>>>>>>>                    >>>>>>>>>>>>>>>>>>>799",
" 994>>>>>>>>>>>>>>>>>>                    >>>>>>>>>>>>>>>>>>499 ",
" 9995<>>>>>>>>>>>>>>>>                    >>>>>>>>>>>>>>>><5999 ",
"  99999999999999999999                    99999999999999999999  ",
"    999999999999999999                    999999999999999999    "
};
