/* XPM */
static char *_53531d93af7451dc6c325f692cd2effWmr7onOLYD8FFTZY[] = {
/* columns rows colors chars-per-pixel */
"64 64 116 2 ",
"   c None",
".  c #323232",
"X  c gray20",
"o  c #3E3433",
"O  c #603935",
"+  c #6B3A35",
"@  c #684B38",
"#  c #694B39",
"$  c #684C38",
"%  c #694C39",
"&  c #4C4842",
"*  c #725540",
"=  c #7B5E48",
"-  c #5A6C47",
";  c #7F7362",
":  c #813D36",
">  c #BA4539",
",  c #C5473A",
"<  c #D0483A",
"1  c #DB543F",
"2  c #E64B3B",
"3  c #E74C3C",
"4  c #85674F",
"5  c #8E7157",
"6  c #977A5E",
"7  c #AD744C",
"8  c #A17C4F",
"9  c #8A7562",
"0  c #CF5C42",
"q  c #E95A47",
"w  c #EB6751",
"e  c #ED7159",
"r  c #EE7A60",
"t  c #3CAC63",
"y  c #27B061",
"u  c #27B062",
"i  c #27B162",
"p  c #28B061",
"a  c #28B062",
"s  c #28B162",
"d  c #28B262",
"f  c #29B765",
"g  c #29B966",
"h  c #2ABB67",
"j  c #2ABC68",
"k  c #2BBE69",
"l  c #35B56B",
"z  c #4F8451",
"x  c #4B8C55",
"c  c #449C5C",
"v  c #76875D",
"b  c #7E9459",
"n  c #739C5D",
"m  c #40A45F",
"M  c #5CAC63",
"N  c #67A460",
"B  c #69AD67",
"V  c #2BC06A",
"C  c #2BC16B",
"Z  c #2CC36C",
"A  c #2CC46C",
"S  c #2CC56D",
"D  c #2CC66E",
"F  c #2DC86F",
"G  c #39C46D",
"H  c #2DCA70",
"J  c #2ECB70",
"K  c #2DCC70",
"L  c #2ECC70",
"P  c #2ECC71",
"I  c #3BCD75",
"U  c #48CE79",
"Y  c #55CF7D",
"T  c #57D07D",
"R  c #6DC97D",
"E  c #968453",
"W  c #998972",
"Q  c #A18366",
"!  c #AA8C6D",
"~  c #B39969",
"^  c #B49675",
"/  c #BD9F7C",
"(  c #8FA76C",
")  c #9CA970",
"_  c #E59472",
"`  c #F49F7D",
"'  c #5DC488",
"]  c #5DC489",
"[  c #62D181",
"{  c #6FD285",
"}  c #78CE9C",
"|  c #C6A884",
" . c #D1B787",
".. c #D0B18B",
"X. c #D9BB93",
"o. c #F6A885",
"O. c #F9BB93",
"+. c #89D48D",
"@. c #96D691",
"#. c #B0D899",
"$. c #BDD99D",
"%. c #93D8B0",
"&. c #E2C49A",
"*. c #CADBA1",
"=. c #D7DCA5",
"-. c #E5CAA1",
";. c #ECCDA2",
":. c #E4DDA9",
">. c #F5D6A9",
",. c #FDD6A9",
"<. c #FFE0B0",
"1. c #FFE0B1",
"2. c #AEE1C4",
"3. c #BBE6CD",
"4. c #CAF2DB",
"5. c white",
/* pixels */
"                                                                                                                                ",
"                                                                                                                                ",
"                                                                                                                                ",
"                                                                                                                                ",
"                                                                                                                                ",
"                                                                                                                                ",
"                                                                                                                                ",
"                                                                                                                                ",
"                                          i s s s s s s s s s s s s s s s s s s s s s p                                         ",
"                                      s s s s s s s s s s s s s s s s s s s s s s s s s s s s                                   ",
"                                      s s s s s s s s s s s s s s s s s s s s s s s s s s s s s i                               ",
"                                    i s s s s s s s s s s s s s s s s s s s s s s s s s s s s s s i                             ",
"                                    ] ] l s s s s s s s s s s s s s s s s s s s s s s s s s s s s s s                           ",
"                                    5.5.5.2.] s s s s s s s s s s s s s s s s s s s s s s s s s s s s s                         ",
"                                    5.5.5.5.5.%.s s s s s s s s s s s s s s s s s s s s s s s s s s s s s                       ",
"                                    5.5.5.5.5.5.} s s s s s s s s s s s s s s s s s s s s s s s s s s s s                       ",
"                                    5.5.5.5.5.5.5.] s s s s s s s s s s s s s s s s s s s s s s s s s s s s                     ",
"                                    5.5.5.5.5.5.5.3.s s s s s s s s s s s s s s s s s s s s s s s s s s s s                     ",
"                                    4.4.4.4.4.4.4.4.s s s s s s s s s s s s s s s s s s s s s s s s s s s s                     ",
"                          K P P P P P P P K K K P P P P K K D D Z k j f f s s s s s s s s s s s s s s s s s                     ",
"                      P P P P P P P P P P P P P P P P P P P P P H P P P P P H D k j f s s s s a s s s s s s                     ",
"                    P P P P P K P P P P P P P P P P P P P P P P P P P P P P P P P P P P H Z j f s s s s s s                     ",
"                    P P P P K K P P P P P P P P P P P P P P K P P P P P P P P P P P P P P P P P K D k g s p                     ",
"                          K K K K P P P P P P P P P P P P P K K P P P P P P P P P P P P P P P P K K P P H Z                     ",
"                                      1.1.=.*.*.*.#.@.@.@.+.[ [ [ Y H K K P P P K K K P P P P P P P P P K K                     ",
"                                      1.1.1.1.1.1.1.1.1.1.1.1.1.1.1.1.1.1.1.v - - - z x x x m t t t t t c                       ",
"                                      1.1.1.1.1.1.1.1.1.1.1.1.1.1.1.1.1.1.1.! % % % % % % % % % % % % % %                       ",
"                                      1.1.1.1.1.1.1.1.1.| % * &.1.1.1.1.1.1.;.% % % % % % % % % % % % % %                       ",
"                                      1.1.1.1.1.1.1.1.1.= % % 5 1.1.1.1.1.1.1.^ X.1.1.1.X.4 % % % % % % %                       ",
"                                      1.1.1.1.1.1.1.1.1.% % % % 1.1.1.1.1.1.1.1.1.1.1.1.1.;.* % % % % % %                       ",
"                                      1.1.1.1.1.1.1.1.1.% % % % 1.1.1.1.1.1.1.1.1.1.1.1.1.1.X.% % % % % %                       ",
"                                    1.1.1.1.1.1.1.1.1.1.4 % % 6 1.1.1.1.1.1.1.1.1.1.1.1.1.1.1.% % % % % %                       ",
"                                  1.1.1.1.1.1.1.1.1.1.1.X.# = >.1.1.1.1.1.1.1.1.1.1.1.1.1.1.1.# # % % % #                       ",
"                                1.1.1.&.6 * 5 5 6 / ;.1.1.1.1.1.1.1.1.1.1.1.1.1.1.1.1.1.1.1.| # # # % % %                       ",
"                                  1.1.= % % % % # % # ..1.1.1.1.1.1.1.1.1.1.1.1.1.1.1.1.1.;.* # % % % % #                       ",
"                                      % % % % % % % # # X.1.1.1.1.1.1.1.1.1.1.1.1.1.1.1.1.1.X.Q * % % %                         ",
"                                      % % % % % % % % % = 1.1.1.1.1.1.1.1.1.1.1.1.1.1.1.1.1.1.1.1.X.^ ^                         ",
"                                      % % % % % % % % % * 1.1.1.1.1.1.1.1.1.1.1.1.1.1.1.1.1.1.1.1.1.1.1.                        ",
"                                      % % % % % % % 5 ^ ;.1.1.1.1.1.1.1.1.1.1.1.1.1.1.1.1.1.1.1.1.1.1.1.                        ",
"                                        T :.1.1.1.1.1.1.1.1.1.1.1.1.1.1.1.1.1.1.1.1.1.1.1.1.1.1.1.1.1.                          ",
"                                        P I [ [ [ [ [ [ [ [ T ) e e e e ~ [ [ [ [ [ [ [ { e e e e e q                           ",
"                                      K P P P P P P P P P P N q 3 3 3 3 G P P P P P P P P 8 2 2 3 3 3                           ",
"                                      K P P P P P P K K P E 3 3 3 3 3 7 P P I [ [ [ I P P n 3 3 3 3 3                           ",
"                                      K P P P P P K K n 0 3 3 3 3 3 3 b U $.1.1.1.1.1.{ P M 3 3 3 3 3 2                         ",
"                                      P P P P M b 7 3 3 3 3 3 3 3 3 3 B :.1.1.1.1.1.1.1.@.M 3 3 3 3 3 3                         ",
"                                      3 3 3 3 3 3 3 3 3 3 3 3 3 3 3 3  .1.1.1.1.1.1.1.1.1.( 3 3 3 3 3 3                         ",
"                                      3 3 3 3 3 3 3 3 3 3 3 3 3 3 3 3 O.1.1.1.1.1.1.1.1.1._ 3 3 3 3 3 3                         ",
"                                      3 3 3 3 3 3 3 3 3 3 3 3 3 3 3 3 o.1.1.1.1.1.1.1.1.1.o.3 3 3 3 3 3                         ",
"                                      3 3 3 3 3 3 3 3 3 3 3 3 3 3 3 3 w 1.1.1.1.1.1.1.1.1.O.3 3 3 3 3 3                         ",
"                                      3 3 3 3 3 3 3 3 3 3 3 3 3 < : O O 9 1.1.1.1.1.1.1.1.` 3 3 3 3 3                           ",
"                                      3 3 3 3 3 3 3 3 3 3 3 3 > X X X X X ; 1.1.1.1.1.1.1.w 3 3 3 3 3                           ",
"                                      2 3 3 3 3 3 3 3 3 3 3 , o X X X X X X & W -.1.1.,.r 3 3 3 3 3 2                           ",
"                                        2 3 3 3 3 3 3 3 3 3 + X X X X X X X X X X o 3 3 3 3 3 3 3 2                             ",
"                                                            X X X X X X X X X X X X                                             ",
"                                                            X X X X X X X X X X X X                                             ",
"                                                              X X X X X X X X X X X                                             ",
"                                                                X X X X X X X X                                                 ",
"                                                                                                                                ",
"                                                                                                                                ",
"                                                                                                                                ",
"                                                                                                                                ",
"                                                                                                                                ",
"                                                                                                                                ",
"                                                                                                                                "
};
