/* XPM */
static char *_769cf820d5448c2c0ae7ee75a7fb4d4xUBPFVAbpsjeNAWI[] = {
/* columns rows colors chars-per-pixel */
"64 64 15 1 ",
"  c None",
". c #6F8587",
"X c #799193",
"o c #819A9C",
"O c #849EA0",
"+ c #86A0A2",
"@ c #87A2A4",
"# c #89A4A6",
"$ c #8BA6A8",
"% c #91AEB0",
"& c #95B2B4",
"* c #9BBBBD",
"= c #9CBBBC",
"- c #9CBABD",
"; c #9CBBBD",
/* pixels */
"     ;;;;;;;;;;;;;;;;;;;;;;;;;;##;;;;;;;;;;;;;;;;;;;;;;;;;;     ",
"   ;;;;;;;;;;;;;;;;;;;;;;;;;;;;##;;;;;;;;;;;;;;;;;;;;;;;;;;;;   ",
" *;;&$@@oooooooooooooooooooooooXXooooooooooooooooooooooo@@$&;;; ",
" ;;$oooooooooooooooooooooooooooXXooooooooooooooooooooooooooo$;; ",
";;%ooooooooooooooooooooooooooooXXoooooooooooooooooooooooooooo%;;",
";;OooooooooooooooooooooooooooooXXoooooooooooooooooooooooooooo+;;",
";;oooooooooooooooooooooooooooooXXooooooooooooooooooooooooooooo;;",
";;oooooooooooooooooooooooooooooXXooooooooooooooooooooooooooooo;;",
";;oooooooooooooooooooooooooooooXXooooooooooooooooooooooooooooo;;",
";;oooooooooooooooooooooooooooooXXooooooooooooooooooooooooooooo;;",
";;oooooooooooooooooooooooooooooXXooooooooooooooooooooooooooooo;;",
";;oooooooooooooooooooooooooooooXXooooooooooooooooooooooooooooo;;",
";;oooooooooooooooooooooooooooooXXooooooooooooooooooooooooooooo;;",
";;oooooooooooooooooooooooooooooXXooooooooooooooooooooooooooooo;;",
";;oooooooooooooooooooooooooooooXXooooooooooooooooooooooooooooo;;",
"#@............................................................$@",
"##............................................................@$",
";;oooooooooooooXXooooooooooooooooooooooooooooooXXooooooooooooo;;",
";;oooooooooooooXXooooooooooooooooooooooooooooooXXooooooooooooo;;",
";;oooooooooooooXXooooooooooooooooooooooooooooooXXooooooooooooo;;",
";;oooooooooooooXXooooooooooooooooooooooooooooooXXooooooooooooo;;",
";;oooooooooooooXXooooooooooooooooooooooooooooooXXooooooooooooo;;",
";;oooooooooooooXXooooooooooooooooooooooooooooooXXooooooooooooo;;",
";;oooooooooooooXXooooooooooooooooooooooooooooooXXooooooooooooo;;",
";;oooooooooooooXXooooooooooooooooooooooooooooooXXooooooooooooo;;",
";;oooooooooooooXXooooooooooooooooooooooooooooooXXooooooooooooo;;",
";;oooooooooooooXXooooooooooooooooooooooooooooooXXooooooooooooo;;",
";;oooooooooooooXXooooooooooooooooooooooooooooooXXooooooooooooo;;",
";;oooooooooooooXXooooooooooooooooooooooooooooooXXooooooooooooo;;",
";;oooooooooooooXXooooooooooooooooooooooooooooooXXooooooooooooo;;",
";;oooooooooooooXXooooooooooooooooooooooooooooooXXooooooooooooo;;",
"##............................................................$@",
"##............................................................@$",
";;oooooooooooooooooooooooooooooXXooooooooooooooooooooooooooooo;;",
";;oooooooooooooooooooooooooooooXXooooooooooooooooooooooooooooo;;",
";;oooooooooooooooooooooooooooooXXooooooooooooooooooooooooooooo;;",
";;oooooooooooooooooooooooooooooXXooooooooooooooooooooooooooooo;;",
";;oooooooooooooooooooooooooooooXXooooooooooooooooooooooooooooo;;",
";;oooooooooooooooooooooooooooooXXooooooooooooooooooooooooooooo;;",
";;oooooooooooooooooooooooooooooXXooooooooooooooooooooooooooooo;;",
";;oooooooooooooooooooooooooooooXXooooooooooooooooooooooooooooo;;",
";;oooooooooooooooooooooooooooooXXooooooooooooooooooooooooooooo;;",
";;oooooooooooooooooooooooooooooXXooooooooooooooooooooooooooooo;;",
";;oooooooooooooooooooooooooooooXXooooooooooooooooooooooooooooo;;",
";;oooooooooooooooooooooooooooooXXooooooooooooooooooooooooooooo;;",
";;oooooooooooooooooooooooooooooXXooooooooooooooooooooooooooooo;;",
";;oooooooooooooooooooooooooooooXXooooooooooooooooooooooooooooo;;",
"##............................................................$@",
"##............................................................@$",
";;oooooooooooooXXooooooooooooooooooooooooooooooXXooooooooooooo;;",
";;oooooooooooooXXooooooooooooooooooooooooooooooXXooooooooooooo;;",
";;oooooooooooooXXooooooooooooooooooooooooooooooXXooooooooooooo;;",
";;oooooooooooooXXooooooooooooooooooooooooooooooXXooooooooooooo;;",
";;oooooooooooooXXooooooooooooooooooooooooooooooXXooooooooooooo;;",
";;oooooooooooooXXooooooooooooooooooooooooooooooXXooooooooooooo;;",
";;oooooooooooooXXooooooooooooooooooooooooooooooXXooooooooooooo;;",
";;oooooooooooooXXooooooooooooooooooooooooooooooXXooooooooooooo;;",
";;oooooooooooooXXooooooooooooooooooooooooooooooXXooooooooooooO;;",
";;#ooooooooooooXXooooooooooooooooooooooooooooooXXoooooooooooo@;;",
";;&ooooooooooooXXooooooooooooooooooooooooooooooXXoooooooooooo&;;",
" ;;$oooooooooooXXooooooooooooooooooooooooooooooXXooooooooooo$;; ",
"  ;;&ooooooooooXXooooooooooooooooooooooooooooooXXoooooooooO%;;  ",
"  ;;;;;;;;;;;;;##;;;;;;;;;;;;;;;;;;;;;;;;;;;;;;##;;;;;;;;;;;;;  ",
"    ;;;;;;;;;;;##;;;;;;;;;;;;;;;;;;;;;;;;;;;;;;##;;;;;;;;;;;    "
};
